<mxfile host="app.diagrams.net" agent="Mozilla/5.0 (Macintosh; Intel Mac OS X 10.15; rv:134.0) Gecko/20100101 Firefox/134.0" version="26.0.6">
  <diagram name="Page-1" id="LdtFYkOJMqkE1PZMPA_q">
    <mxGraphModel dx="597" dy="391" grid="1" gridSize="10" guides="1" tooltips="1" connect="1" arrows="1" fold="1" page="1" pageScale="1" pageWidth="827" pageHeight="1169" math="0" shadow="0">
      <root>
        <mxCell id="0" />
        <mxCell id="1" parent="0" />
        <mxCell id="iVfQzR1ZFfdCuSyVMKvP-27" value="" style="ellipse;whiteSpace=wrap;html=1;fillColor=none;rotation=15;dashed=1;dashPattern=12 12;fontFamily=CMU;fontSource=https%3A%2F%2Fcdn.jsdelivr.net%2Fgh%2Fbitmaks%2Fcm-web-fonts%40latest%2Ffont%2FSerif%2Fcmunrm.woff;" vertex="1" parent="1">
          <mxGeometry x="123" y="325" width="430" height="260" as="geometry" />
        </mxCell>
        <mxCell id="iVfQzR1ZFfdCuSyVMKvP-6" value="" style="ellipse;whiteSpace=wrap;html=1;fillColor=none;dashed=1;fontFamily=CMU;fontSource=https%3A%2F%2Fcdn.jsdelivr.net%2Fgh%2Fbitmaks%2Fcm-web-fonts%40latest%2Ffont%2FSerif%2Fcmunrm.woff;" vertex="1" parent="1">
          <mxGeometry x="157.5" y="340" width="135" height="110" as="geometry" />
        </mxCell>
        <mxCell id="iVfQzR1ZFfdCuSyVMKvP-1" value="IdP" style="sketch=0;pointerEvents=1;shadow=0;dashed=0;html=1;strokeColor=none;fillColor=#505050;labelPosition=center;verticalLabelPosition=bottom;verticalAlign=top;outlineConnect=0;align=center;shape=mxgraph.office.concepts.home;fontFamily=CMU;fontSource=https%3A%2F%2Fcdn.jsdelivr.net%2Fgh%2Fbitmaks%2Fcm-web-fonts%40latest%2Ffont%2FSerif%2Fcmunrm.woff;" vertex="1" parent="1">
          <mxGeometry x="200" y="350" width="30" height="30" as="geometry" />
        </mxCell>
        <mxCell id="iVfQzR1ZFfdCuSyVMKvP-2" value="SP" style="ellipse;shape=cloud;whiteSpace=wrap;html=1;fontFamily=CMU;fontSource=https%3A%2F%2Fcdn.jsdelivr.net%2Fgh%2Fbitmaks%2Fcm-web-fonts%40latest%2Ffont%2FSerif%2Fcmunrm.woff;" vertex="1" parent="1">
          <mxGeometry x="230" y="370" width="50" height="30" as="geometry" />
        </mxCell>
        <mxCell id="iVfQzR1ZFfdCuSyVMKvP-3" value="" style="sketch=0;outlineConnect=0;fontColor=#232F3E;gradientColor=none;fillColor=#232F3D;strokeColor=none;dashed=0;verticalLabelPosition=bottom;verticalAlign=top;align=center;html=1;fontSize=12;fontStyle=0;aspect=fixed;pointerEvents=1;shape=mxgraph.aws4.user;fontFamily=CMU;fontSource=https%3A%2F%2Fcdn.jsdelivr.net%2Fgh%2Fbitmaks%2Fcm-web-fonts%40latest%2Ffont%2FSerif%2Fcmunrm.woff;" vertex="1" parent="1">
          <mxGeometry x="170" y="385" width="20" height="20" as="geometry" />
        </mxCell>
        <mxCell id="iVfQzR1ZFfdCuSyVMKvP-4" value="" style="sketch=0;outlineConnect=0;fontColor=#232F3E;gradientColor=none;fillColor=#232F3D;strokeColor=none;dashed=0;verticalLabelPosition=bottom;verticalAlign=top;align=center;html=1;fontSize=12;fontStyle=0;aspect=fixed;pointerEvents=1;shape=mxgraph.aws4.user;fontFamily=CMU;fontSource=https%3A%2F%2Fcdn.jsdelivr.net%2Fgh%2Fbitmaks%2Fcm-web-fonts%40latest%2Ffont%2FSerif%2Fcmunrm.woff;" vertex="1" parent="1">
          <mxGeometry x="180" y="410" width="20" height="20" as="geometry" />
        </mxCell>
        <mxCell id="iVfQzR1ZFfdCuSyVMKvP-7" value="SP" style="ellipse;shape=cloud;whiteSpace=wrap;html=1;fontFamily=CMU;fontSource=https%3A%2F%2Fcdn.jsdelivr.net%2Fgh%2Fbitmaks%2Fcm-web-fonts%40latest%2Ffont%2FSerif%2Fcmunrm.woff;" vertex="1" parent="1">
          <mxGeometry x="220" y="405" width="50" height="30" as="geometry" />
        </mxCell>
        <mxCell id="iVfQzR1ZFfdCuSyVMKvP-8" value="" style="ellipse;whiteSpace=wrap;html=1;fillColor=none;dashed=1;fontFamily=CMU;fontSource=https%3A%2F%2Fcdn.jsdelivr.net%2Fgh%2Fbitmaks%2Fcm-web-fonts%40latest%2Ffont%2FSerif%2Fcmunrm.woff;" vertex="1" parent="1">
          <mxGeometry x="319" y="360" width="154" height="80" as="geometry" />
        </mxCell>
        <mxCell id="iVfQzR1ZFfdCuSyVMKvP-9" value="IdP" style="sketch=0;pointerEvents=1;shadow=0;dashed=0;html=1;strokeColor=none;fillColor=#505050;labelPosition=center;verticalLabelPosition=bottom;verticalAlign=top;outlineConnect=0;align=center;shape=mxgraph.office.concepts.home;fontFamily=CMU;fontSource=https%3A%2F%2Fcdn.jsdelivr.net%2Fgh%2Fbitmaks%2Fcm-web-fonts%40latest%2Ffont%2FSerif%2Fcmunrm.woff;" vertex="1" parent="1">
          <mxGeometry x="333" y="375" width="30" height="30" as="geometry" />
        </mxCell>
        <mxCell id="iVfQzR1ZFfdCuSyVMKvP-10" value="SP" style="ellipse;shape=cloud;whiteSpace=wrap;html=1;fontFamily=CMU;fontSource=https%3A%2F%2Fcdn.jsdelivr.net%2Fgh%2Fbitmaks%2Fcm-web-fonts%40latest%2Ffont%2FSerif%2Fcmunrm.woff;" vertex="1" parent="1">
          <mxGeometry x="413" y="380" width="50" height="30" as="geometry" />
        </mxCell>
        <mxCell id="iVfQzR1ZFfdCuSyVMKvP-11" value="SP" style="ellipse;shape=cloud;whiteSpace=wrap;html=1;fontFamily=CMU;fontSource=https%3A%2F%2Fcdn.jsdelivr.net%2Fgh%2Fbitmaks%2Fcm-web-fonts%40latest%2Ffont%2FSerif%2Fcmunrm.woff;" vertex="1" parent="1">
          <mxGeometry x="373" y="405" width="50" height="30" as="geometry" />
        </mxCell>
        <mxCell id="iVfQzR1ZFfdCuSyVMKvP-12" value="" style="sketch=0;outlineConnect=0;fontColor=#232F3E;gradientColor=none;fillColor=#232F3D;strokeColor=none;dashed=0;verticalLabelPosition=bottom;verticalAlign=top;align=center;html=1;fontSize=12;fontStyle=0;aspect=fixed;pointerEvents=1;shape=mxgraph.aws4.user;fontFamily=CMU;fontSource=https%3A%2F%2Fcdn.jsdelivr.net%2Fgh%2Fbitmaks%2Fcm-web-fonts%40latest%2Ffont%2FSerif%2Fcmunrm.woff;" vertex="1" parent="1">
          <mxGeometry x="373" y="370" width="20" height="20" as="geometry" />
        </mxCell>
        <mxCell id="iVfQzR1ZFfdCuSyVMKvP-13" value="" style="sketch=0;outlineConnect=0;fontColor=#232F3E;gradientColor=none;fillColor=#232F3D;strokeColor=none;dashed=0;verticalLabelPosition=bottom;verticalAlign=top;align=center;html=1;fontSize=12;fontStyle=0;aspect=fixed;pointerEvents=1;shape=mxgraph.aws4.user;fontFamily=CMU;fontSource=https%3A%2F%2Fcdn.jsdelivr.net%2Fgh%2Fbitmaks%2Fcm-web-fonts%40latest%2Ffont%2FSerif%2Fcmunrm.woff;" vertex="1" parent="1">
          <mxGeometry x="388" y="380" width="20" height="20" as="geometry" />
        </mxCell>
        <mxCell id="iVfQzR1ZFfdCuSyVMKvP-14" value="" style="ellipse;whiteSpace=wrap;html=1;fillColor=none;dashed=1;fontFamily=CMU;fontSource=https%3A%2F%2Fcdn.jsdelivr.net%2Fgh%2Fbitmaks%2Fcm-web-fonts%40latest%2Ffont%2FSerif%2Fcmunrm.woff;" vertex="1" parent="1">
          <mxGeometry x="200" y="470" width="154" height="80" as="geometry" />
        </mxCell>
        <mxCell id="iVfQzR1ZFfdCuSyVMKvP-15" value="IdP" style="sketch=0;pointerEvents=1;shadow=0;dashed=0;html=1;strokeColor=none;fillColor=#505050;labelPosition=center;verticalLabelPosition=bottom;verticalAlign=top;outlineConnect=0;align=center;shape=mxgraph.office.concepts.home;fontFamily=CMU;fontSource=https%3A%2F%2Fcdn.jsdelivr.net%2Fgh%2Fbitmaks%2Fcm-web-fonts%40latest%2Ffont%2FSerif%2Fcmunrm.woff;" vertex="1" parent="1">
          <mxGeometry x="304" y="485" width="30" height="30" as="geometry" />
        </mxCell>
        <mxCell id="iVfQzR1ZFfdCuSyVMKvP-16" value="SP" style="ellipse;shape=cloud;whiteSpace=wrap;html=1;fontFamily=CMU;fontSource=https%3A%2F%2Fcdn.jsdelivr.net%2Fgh%2Fbitmaks%2Fcm-web-fonts%40latest%2Ffont%2FSerif%2Fcmunrm.woff;" vertex="1" parent="1">
          <mxGeometry x="204" y="495" width="50" height="30" as="geometry" />
        </mxCell>
        <mxCell id="iVfQzR1ZFfdCuSyVMKvP-17" value="SP" style="ellipse;shape=cloud;whiteSpace=wrap;html=1;fontFamily=CMU;fontSource=https%3A%2F%2Fcdn.jsdelivr.net%2Fgh%2Fbitmaks%2Fcm-web-fonts%40latest%2Ffont%2FSerif%2Fcmunrm.woff;" vertex="1" parent="1">
          <mxGeometry x="254" y="515" width="50" height="30" as="geometry" />
        </mxCell>
        <mxCell id="iVfQzR1ZFfdCuSyVMKvP-18" value="" style="sketch=0;outlineConnect=0;fontColor=#232F3E;gradientColor=none;fillColor=#232F3D;strokeColor=none;dashed=0;verticalLabelPosition=bottom;verticalAlign=top;align=center;html=1;fontSize=12;fontStyle=0;aspect=fixed;pointerEvents=1;shape=mxgraph.aws4.user;fontFamily=CMU;fontSource=https%3A%2F%2Fcdn.jsdelivr.net%2Fgh%2Fbitmaks%2Fcm-web-fonts%40latest%2Ffont%2FSerif%2Fcmunrm.woff;" vertex="1" parent="1">
          <mxGeometry x="254" y="480" width="20" height="20" as="geometry" />
        </mxCell>
        <mxCell id="iVfQzR1ZFfdCuSyVMKvP-19" value="" style="sketch=0;outlineConnect=0;fontColor=#232F3E;gradientColor=none;fillColor=#232F3D;strokeColor=none;dashed=0;verticalLabelPosition=bottom;verticalAlign=top;align=center;html=1;fontSize=12;fontStyle=0;aspect=fixed;pointerEvents=1;shape=mxgraph.aws4.user;fontFamily=CMU;fontSource=https%3A%2F%2Fcdn.jsdelivr.net%2Fgh%2Fbitmaks%2Fcm-web-fonts%40latest%2Ffont%2FSerif%2Fcmunrm.woff;" vertex="1" parent="1">
          <mxGeometry x="269" y="490" width="20" height="20" as="geometry" />
        </mxCell>
        <mxCell id="iVfQzR1ZFfdCuSyVMKvP-20" value="" style="ellipse;whiteSpace=wrap;html=1;fillColor=none;dashed=1;fontFamily=CMU;fontSource=https%3A%2F%2Fcdn.jsdelivr.net%2Fgh%2Fbitmaks%2Fcm-web-fonts%40latest%2Ffont%2FSerif%2Fcmunrm.woff;" vertex="1" parent="1">
          <mxGeometry x="373" y="460" width="135" height="100" as="geometry" />
        </mxCell>
        <mxCell id="iVfQzR1ZFfdCuSyVMKvP-21" value="IdP" style="sketch=0;pointerEvents=1;shadow=0;dashed=0;html=1;strokeColor=none;fillColor=#505050;labelPosition=center;verticalLabelPosition=bottom;verticalAlign=top;outlineConnect=0;align=center;shape=mxgraph.office.concepts.home;fontFamily=CMU;fontSource=https%3A%2F%2Fcdn.jsdelivr.net%2Fgh%2Fbitmaks%2Fcm-web-fonts%40latest%2Ffont%2FSerif%2Fcmunrm.woff;" vertex="1" parent="1">
          <mxGeometry x="443" y="470" width="30" height="30" as="geometry" />
        </mxCell>
        <mxCell id="iVfQzR1ZFfdCuSyVMKvP-22" value="SP" style="ellipse;shape=cloud;whiteSpace=wrap;html=1;fontFamily=CMU;fontSource=https%3A%2F%2Fcdn.jsdelivr.net%2Fgh%2Fbitmaks%2Fcm-web-fonts%40latest%2Ffont%2FSerif%2Fcmunrm.woff;" vertex="1" parent="1">
          <mxGeometry x="388" y="480" width="50" height="30" as="geometry" />
        </mxCell>
        <mxCell id="iVfQzR1ZFfdCuSyVMKvP-23" value="" style="sketch=0;outlineConnect=0;fontColor=#232F3E;gradientColor=none;fillColor=#232F3D;strokeColor=none;dashed=0;verticalLabelPosition=bottom;verticalAlign=top;align=center;html=1;fontSize=12;fontStyle=0;aspect=fixed;pointerEvents=1;shape=mxgraph.aws4.user;fontFamily=CMU;fontSource=https%3A%2F%2Fcdn.jsdelivr.net%2Fgh%2Fbitmaks%2Fcm-web-fonts%40latest%2Ffont%2FSerif%2Fcmunrm.woff;" vertex="1" parent="1">
          <mxGeometry x="454.5" y="529" width="20" height="20" as="geometry" />
        </mxCell>
        <mxCell id="iVfQzR1ZFfdCuSyVMKvP-24" value="" style="sketch=0;outlineConnect=0;fontColor=#232F3E;gradientColor=none;fillColor=#232F3D;strokeColor=none;dashed=0;verticalLabelPosition=bottom;verticalAlign=top;align=center;html=1;fontSize=12;fontStyle=0;aspect=fixed;pointerEvents=1;shape=mxgraph.aws4.user;fontFamily=CMU;fontSource=https%3A%2F%2Fcdn.jsdelivr.net%2Fgh%2Fbitmaks%2Fcm-web-fonts%40latest%2Ffont%2FSerif%2Fcmunrm.woff;" vertex="1" parent="1">
          <mxGeometry x="474.5" y="514" width="20" height="20" as="geometry" />
        </mxCell>
        <mxCell id="iVfQzR1ZFfdCuSyVMKvP-25" value="SP" style="ellipse;shape=cloud;whiteSpace=wrap;html=1;fontFamily=CMU;fontSource=https%3A%2F%2Fcdn.jsdelivr.net%2Fgh%2Fbitmaks%2Fcm-web-fonts%40latest%2Ffont%2FSerif%2Fcmunrm.woff;" vertex="1" parent="1">
          <mxGeometry x="388" y="514" width="50" height="30" as="geometry" />
        </mxCell>
        <mxCell id="iVfQzR1ZFfdCuSyVMKvP-28" value="Organisation" style="text;html=1;align=center;verticalAlign=middle;whiteSpace=wrap;rounded=0;fontFamily=CMU;fontSource=https%3A%2F%2Fcdn.jsdelivr.net%2Fgh%2Fbitmaks%2Fcm-web-fonts%40latest%2Ffont%2FSerif%2Fcmunrm.woff;" vertex="1" parent="1">
          <mxGeometry x="363" y="300" width="82" height="20" as="geometry" />
        </mxCell>
        <mxCell id="iVfQzR1ZFfdCuSyVMKvP-29" value="" style="endArrow=classic;html=1;rounded=0;entryX=0.396;entryY=-0.016;entryDx=0;entryDy=0;entryPerimeter=0;fontFamily=CMU;fontSource=https%3A%2F%2Fcdn.jsdelivr.net%2Fgh%2Fbitmaks%2Fcm-web-fonts%40latest%2Ffont%2FSerif%2Fcmunrm.woff;" edge="1" parent="1" source="iVfQzR1ZFfdCuSyVMKvP-28" target="iVfQzR1ZFfdCuSyVMKvP-8">
          <mxGeometry width="50" height="50" relative="1" as="geometry">
            <mxPoint x="330" y="520" as="sourcePoint" />
            <mxPoint x="380" y="470" as="targetPoint" />
          </mxGeometry>
        </mxCell>
        <mxCell id="iVfQzR1ZFfdCuSyVMKvP-30" value="Föderation" style="text;html=1;align=center;verticalAlign=middle;whiteSpace=wrap;rounded=0;fontStyle=1;fontFamily=CMU;fontSource=https%3A%2F%2Fcdn.jsdelivr.net%2Fgh%2Fbitmaks%2Fcm-web-fonts%40latest%2Ffont%2FSerif%2Fcmunrm.woff;fontSize=15;" vertex="1" parent="1">
          <mxGeometry x="254" y="270" width="82" height="20" as="geometry" />
        </mxCell>
        <mxCell id="iVfQzR1ZFfdCuSyVMKvP-32" value="" style="endArrow=classic;html=1;rounded=0;exitX=0.5;exitY=1;exitDx=0;exitDy=0;entryX=0.319;entryY=0.028;entryDx=0;entryDy=0;entryPerimeter=0;fontFamily=CMU;fontSource=https%3A%2F%2Fcdn.jsdelivr.net%2Fgh%2Fbitmaks%2Fcm-web-fonts%40latest%2Ffont%2FSerif%2Fcmunrm.woff;" edge="1" parent="1" source="iVfQzR1ZFfdCuSyVMKvP-30" target="iVfQzR1ZFfdCuSyVMKvP-27">
          <mxGeometry width="50" height="50" relative="1" as="geometry">
            <mxPoint x="330" y="520" as="sourcePoint" />
            <mxPoint x="295" y="310" as="targetPoint" />
          </mxGeometry>
        </mxCell>
      </root>
    </mxGraphModel>
  </diagram>
</mxfile>
